<svg height="512" viewBox="0 0 64 64" width="512" xmlns="http://www.w3.org/2000/svg"><path d="m15 64h34a6 6 0 0 0 6-6v-48a6 6 0 0 0 -6-6h-4.35a6 6 0 0 0 -5.65-4h-14a6 6 0 0 0 -5.65 4h-4.35a6 6 0 0 0 -6 6v48a6 6 0 0 0 6 6zm10-60h14a2 2 0 0 1 0 4h-14a2 2 0 0 1 0-4zm-12 6a2 2 0 0 1 2-2h4.35a6 6 0 0 0 5.65 4h14a6 6 0 0 0 5.65-4h4.35a2 2 0 0 1 2 2v48a2 2 0 0 1 -2 2h-34a2 2 0 0 1 -2-2z"/><path d="m27 45.37a2 2 0 0 0 1.5.63h.1a2 2 0 0 0 1.49-.79l16-21a2 2 0 0 0 -3.18-2.42l-14.57 19.12-5.88-6.28a2 2 0 1 0 -2.92 2.74z"/></svg>