<svg id="Layer_1" enable-background="new 0 0 100 100" viewBox="0 0 100 100" xmlns="http://www.w3.org/2000/svg"><g><path d="m83.9703445 41.7316093-8.7289658 8.7289619v.9698868c0 17.4579315-14.0633278 31.5212708-31.5212631 31.5212708s-31.521264-14.0633392-31.521264-31.5212707 14.0633326-31.521265 31.5212631-31.521265c5.819313 0 11.6386185 1.4548283 16.0031013 4.3644829l6.789196-7.2741394c-6.3042526-4.3644819-14.0633316-6.7891951-22.7922974-6.7891951-22.7922993 0-41.2201157 18.4278183-41.2201157 41.2201157s18.4278164 41.2201157 41.2201157 41.2201157 41.2201157-18.4278107 41.2201157-41.2201157c.000001-3.3945952-.4849386-6.7891913-.9698858-9.6988479z"/><path d="m96.0939102 15.5447073-46.5544853 46.554493c-1.8747826 1.8747826-4.9144096 1.8747826-6.7891922 0l-15.5181675-15.5181723c-1.8747826-1.8747826-1.8747826-4.9144058.0000019-6.7891884l.0000057-.0000076c1.8747845-1.8747826 4.9144077-1.8747826 6.7891903 0l12.1235657 12.1235733 43.1598892-43.159895c1.8747787-1.8747826 4.9144058-1.874783 6.7891846 0l.0000076.0000067c1.8747864 1.8747835 1.8747864 4.9144077 0 6.7891903z"/><path d="m96.0939102 15.5447073-46.5544853 46.554493c-1.8747826 1.8747826-4.9144096 1.8747826-6.7891922 0l-15.5181675-15.5181723c-1.8747826-1.8747826-1.8747826-4.9144058.0000019-6.7891884l.0000057-.0000076c1.8747845-1.8747826 4.9144077-1.8747826 6.7891903 0l12.1235657 12.1235733 43.1598892-43.159895c1.8747787-1.8747826 4.9144058-1.874783 6.7891846 0l.0000076.0000067c1.8747864 1.8747835 1.8747864 4.9144077 0 6.7891903z"/></g></svg>