<svg fill="none" height="512" viewBox="0 0 24 24" width="512" xmlns="http://www.w3.org/2000/svg"><path clip-rule="evenodd" d="m9.66753 10.6311c.78617.7507.78617 1.9871 0 2.7378l-.10743.1025c-2.01513 1.9233-3.57177 3.4084-4.04101 6.5213-.16602 1.0976.77441 2.0073 1.90625 2.0073h4.57466 4.5748c1.1318 0 2.0722-.9097 1.9062-2.0073-.4692-3.1129-2.0259-4.598-4.041-6.5213l-.1074-.1025c-.7862-.7507-.7862-1.9871 0-2.7378l.1074-.1025c2.0151-1.92325 3.5718-3.40836 4.041-6.52128.166-1.09765-.7744-2.00732-1.9062-2.00732h-4.5748-4.57466c-1.13184 0-2.07227.90967-1.90625 2.00732.46924 3.11292 2.02588 4.59803 4.04101 6.52128zm.68307-1.69763-.0073-.00622c-1.53564-1.37317-2.67822-2.39539-2.82714-4.92359-.00928-.15552.0581-.29516.16797-.38769.08545-.07239.19726-.11597.31933-.11597h3.99654 3.9961c.1441 0 .274.06079.3633.15784.0835.09033.1319.21216.124.34582-.1489 2.5282-1.2915 3.55042-2.8266 4.92359-.4063.36316-.8399.75097-1.2896 1.19765-.2026.2013-.5322.2013-.7348 0-.4473-.44411-.8784-.8301-1.2818-1.19143z" fill="rgb(0,0,0)" fill-rule="evenodd"/></svg>