<svg id="icons" height="512" viewBox="0 0 48 48" width="512" xmlns="http://www.w3.org/2000/svg"><g fill="rgb(0,0,0)"><path d="m36 7h-24a3 3 0 0 0 -3 3v30a3 3 0 0 0 3 3h24a3 3 0 0 0 3-3v-30a3 3 0 0 0 -3-3zm1 33a1 1 0 0 1 -1 1h-24a1 1 0 0 1 -1-1v-30a1 1 0 0 1 1-1h24a1 1 0 0 1 1 1z"/><path d="m16 15h7a1 1 0 0 0 0-2h-7a1 1 0 0 0 0 2z"/><path d="m32 21h-16a1 1 0 0 0 0 2h16a1 1 0 0 0 0-2z"/><path d="m32 27h-16a1 1 0 0 0 0 2h16a1 1 0 0 0 0-2z"/><path d="m28 33h-12a1 1 0 0 0 0 2h12a1 1 0 0 0 0-2z"/></g></svg>