<svg height="512" viewBox="0 0 96 96" width="512" xmlns="http://www.w3.org/2000/svg"><g id="Layer_4"><g><path d="m18.294 92h10.893c1.711 0 3.099-1.289 3.099-3s-1.387-3-3.099-3h-10.893c-4.586 0-8.294-4.07-8.294-8.831v-44.169h75v11.282c0 1.711 1.789 3.099 3.5 3.099s3.5-1.387 3.5-3.099v-25.388c0-8.073-7.587-14.894-15.574-14.894h-58.132c-8.003 0-14.294 6.681-14.294 14.894v58.275c0 8.178 6.291 14.831 14.294 14.831zm-8.294-73.106c0-4.714 3.786-8.894 8.294-8.894h58.132c4.627 0 8.574 4.18 8.574 8.894v8.106h-75z"/><path d="m74.427 16h-1.239c-1.711 0-3.099 1.789-3.099 3.5s1.387 3.5 3.099 3.5h1.239c1.711 0 3.099-1.789 3.099-3.5s-1.388-3.5-3.099-3.5z"/><path d="m63.892 16h-1.239c-1.711 0-3.099 1.789-3.099 3.5s1.387 3.5 3.099 3.5h1.239c1.711 0 3.099-1.789 3.099-3.5s-1.388-3.5-3.099-3.5z"/><path d="m52.737 16h-1.239c-1.711 0-3.099 1.789-3.099 3.5s1.387 3.5 3.099 3.5h1.239c1.711 0 3.099-1.789 3.099-3.5s-1.388-3.5-3.099-3.5z"/><path d="m60.997 47.135c-13.588 0-25.997 8.533-30.997 21.234 0 0 6.505 23.954 30.997 23.432 25.878-.551 31.003-23.432 31.003-23.432-5-12.701-17.411-21.234-31.003-21.234zm.221 38.469c-10.634 0-20.346-6.437-24.536-16.136 4.189-9.699 13.902-16.136 24.536-16.136 10.637 0 20.351 6.437 24.541 16.136-4.189 9.699-13.904 16.136-24.541 16.136z"/><path d="m61.221 57.445c-6.63 0-12.024 5.393-12.024 12.023s5.394 12.023 12.024 12.023 12.023-5.393 12.023-12.023-5.393-12.023-12.023-12.023zm0 17.849c-3.213 0-5.827-2.614-5.827-5.826s2.614-5.826 5.827-5.826 5.826 2.614 5.826 5.826-2.613 5.826-5.826 5.826z"/></g></g></svg>